<svg width="20" height="20" viewBox="0 0 20 20" fill="none" xmlns="http://www.w3.org/2000/svg">
<path d="M9.89682 14.4125C12.2433 14.4125 14.1641 12.5012 14.1641 10.1452C14.1641 9.21794 13.8613 8.35692 13.3598 7.65675C12.584 6.58757 11.3256 5.87793 9.90628 5.87793C8.48701 5.87793 7.22859 6.5781 6.45273 7.65675C5.95125 8.35692 5.64847 9.21794 5.64847 10.1452C5.63901 12.5012 7.55029 14.4125 9.89682 14.4125Z" fill="black"/>
<path d="M19.206 4.94187V1.36531V0.835449H18.6762L15.0996 0.844912L15.1185 4.95133L19.206 4.94187Z" fill="black"/>
<path d="M16.5193 10.1545C16.5193 13.8067 13.5483 16.7777 9.89604 16.7777C6.24379 16.7777 3.27278 13.8067 3.27278 10.1545C3.27278 9.27452 3.45256 8.43242 3.7648 7.66602H0.150391V17.582C0.150391 18.8593 1.19119 19.9001 2.46853 19.9001H17.3236C18.6009 19.9001 19.6417 18.8593 19.6417 17.582V7.66602H16.0273C16.349 8.43242 16.5193 9.27452 16.5193 10.1545Z" fill="black"/>
</svg>
